<svg width="50" height="50" viewBox="0 0 50 50" fill="none" xmlns="http://www.w3.org/2000/svg">
  <defs>
    <linearGradient id="tgGradient" x1="0" y1="0" x2="50" y2="50" gradientUnits="userSpaceOnUse">
      <stop offset="0%" stop-color="#7c5cff"/>
      <stop offset="50%" stop-color="#22d3ee"/>
      <stop offset="100%" stop-color="#34d399"/>
    </linearGradient>
    <filter id="glow" x="-30%" y="-30%" width="160%" height="160%">
      <feGaussianBlur stdDeviation="1.8" result="blur"/>
      <feMerge>
        <feMergeNode in="blur"/>
        <feMergeNode in="SourceGraphic"/>
      </feMerge>
    </filter>
  </defs>
  <path fill-rule="evenodd" clip-rule="evenodd"
    d="M11.3 24.7C18.6 21.6 23.5 19.5 25.9 18.5C32.8 15.6 34.3 15.1 35.2 15.1C35.4 15.0 35.9 15.1 36.2 15.3C36.4 15.5 36.5 15.8 36.5 16.0C36.6 16.2 36.6 16.7 36.6 17.0C36.2 20.9 34.6 30.5 33.8 35.0C33.4 36.8 32.7 37.5 32.0 37.5C30.6 37.7 29.5 36.6 28.1 35.7C25.9 34.2 24.6 33.3 22.5 31.9C20.0 30.3 21.6 29.4 23.0 27.9C23.4 27.5 29.8 21.7 29.9 21.2C29.9 21.1 30.0 20.9 29.8 20.8C29.7 20.6 29.5 20.7 29.3 20.7C29.1 20.8 25.6 23.1 18.8 27.7C17.8 28.4 16.9 28.7 16.0 28.7C15.2 28.7 13.4 28.2 12.2 27.8C10.6 27.3 9.3 27.0 9.4 26.1C9.5 25.7 10.1 25.2 11.3 24.7Z"
    fill="url(#tgGradient)" filter="url(#glow)"/>
</svg>
